<svg xmlns="http://www.w3.org/2000/svg" viewBox="0 0 1060 670" width="1060" height="670" role="img" font-family="system-ui, -apple-system, 'Segoe UI', Roboto, sans-serif">
<rect width="1060" height="670" fill="var(--jv-bg, #fcfcfb)"/>
<text x="24" y="34" font-size="19" font-weight="650" fill="var(--jv-text, #0b0b0b)" letter-spacing="-0.01em">What the guard does, by command category</text>
<text x="24" y="58" font-size="13" fill="var(--jv-dim, #52514e)">124 live commands · 2026-09-18 · bar length = how many commands fell in each band</text>
<rect x="24" y="75" width="11" height="11" rx="3" fill="var(--jv-allow, #0ca30c)"/>
<text x="41" y="84" font-size="12" fill="var(--jv-dim, #52514e)">allow (runs)</text>
<rect x="144.5" y="75" width="11" height="11" rx="3" fill="var(--jv-ask, #fab219)"/>
<text x="161.5" y="84" font-size="12" fill="var(--jv-dim, #52514e)">ask (confirms)</text>
<rect x="279" y="75" width="11" height="11" rx="3" fill="var(--jv-block, #d03b3b)"/>
<text x="296" y="84" font-size="12" fill="var(--jv-dim, #52514e)">block (never runs)</text>
<text x="198" y="136" font-size="13" fill="var(--jv-text, #0b0b0b)" text-anchor="end" font-weight="600">Safe read-only</text>
<text x="198" y="151" font-size="11" fill="var(--jv-dim, #52514e)" text-anchor="end">16 commands</text>
<g class="mark-g"><title>Safe read-only: 16 allow</title><path class="mark" d="M210,118H770.7A4,4 0 0 1 774.7,122V138A4,4 0 0 1 770.7,142H210V118Z" fill="var(--jv-allow, #0ca30c)"/>
</g>
<text x="492.4" y="135" font-size="12" fill="#ffffff" text-anchor="middle" font-weight="700">16</text>
<text x="786.7" y="135" font-size="11" fill="var(--jv-dim, #52514e)" text-anchor="start">0 blocked · 0 ask · 16 allow</text>
<text x="198" y="182" font-size="13" fill="var(--jv-text, #0b0b0b)" text-anchor="end" font-weight="600">Routine dev</text>
<text x="198" y="197" font-size="11" fill="var(--jv-dim, #52514e)" text-anchor="end">16 commands</text>
<g class="mark-g"><title>Routine dev: 15 allow</title><path class="mark" d="M210,164H737.4V188H210V164Z" fill="var(--jv-allow, #0ca30c)"/>
</g>
<text x="474.7" y="181" font-size="12" fill="#ffffff" text-anchor="middle" font-weight="700">15</text>
<g class="mark-g"><title>Routine dev: 1 ask</title><path class="mark" d="M739.4,164H770.7A4,4 0 0 1 774.7,168V184A4,4 0 0 1 770.7,188H739.4V164Z" fill="var(--jv-ask, #fab219)"/>
</g>
<text x="757.1" y="181" font-size="12" fill="#1a1a19" text-anchor="middle" font-weight="700">1</text>
<text x="786.7" y="181" font-size="11" fill="var(--jv-dim, #52514e)" text-anchor="start">0 blocked · 1 ask · 15 allow</text>
<text x="198" y="228" font-size="13" fill="var(--jv-text, #0b0b0b)" text-anchor="end" font-weight="600">Installs</text>
<text x="198" y="243" font-size="11" fill="var(--jv-dim, #52514e)" text-anchor="end">6 commands</text>
<g class="mark-g"><title>Installs: 6 ask</title><path class="mark" d="M210,210H417.8A4,4 0 0 1 421.8,214V230A4,4 0 0 1 417.8,234H210V210Z" fill="var(--jv-ask, #fab219)"/>
</g>
<text x="315.9" y="227" font-size="12" fill="#1a1a19" text-anchor="middle" font-weight="700">6</text>
<text x="433.8" y="227" font-size="11" fill="var(--jv-dim, #52514e)" text-anchor="start">0 blocked · 6 ask · 0 allow</text>
<text x="198" y="274" font-size="13" fill="var(--jv-text, #0b0b0b)" text-anchor="end" font-weight="600">Risky</text>
<text x="198" y="289" font-size="11" fill="var(--jv-dim, #52514e)" text-anchor="end">16 commands</text>
<g class="mark-g"><title>Risky: 4 allow</title><path class="mark" d="M210,256H349.2V280H210V256Z" fill="var(--jv-allow, #0ca30c)"/>
</g>
<text x="280.6" y="273" font-size="12" fill="#ffffff" text-anchor="middle" font-weight="700">4</text>
<g class="mark-g"><title>Risky: 12 ask</title><path class="mark" d="M351.2,256H770.7A4,4 0 0 1 774.7,260V276A4,4 0 0 1 770.7,280H351.2V256Z" fill="var(--jv-ask, #fab219)"/>
</g>
<text x="562.9" y="273" font-size="12" fill="#1a1a19" text-anchor="middle" font-weight="700">12</text>
<text x="786.7" y="273" font-size="11" fill="var(--jv-dim, #52514e)" text-anchor="start">0 blocked · 12 ask · 4 allow</text>
<text x="198" y="320" font-size="13" fill="var(--jv-text, #0b0b0b)" text-anchor="end" font-weight="600">Traps (must pass)</text>
<text x="198" y="335" font-size="11" fill="var(--jv-dim, #52514e)" text-anchor="end">8 commands</text>
<g class="mark-g"><title>Traps (must pass): 3 allow</title><path class="mark" d="M210,302H313.9V326H210V302Z" fill="var(--jv-allow, #0ca30c)"/>
</g>
<text x="262.9" y="319" font-size="12" fill="#ffffff" text-anchor="middle" font-weight="700">3</text>
<g class="mark-g"><title>Traps (must pass): 5 ask</title><path class="mark" d="M315.9,302H488.4A4,4 0 0 1 492.4,306V322A4,4 0 0 1 488.4,326H315.9V302Z" fill="var(--jv-ask, #fab219)"/>
</g>
<text x="404.1" y="319" font-size="12" fill="#1a1a19" text-anchor="middle" font-weight="700">5</text>
<text x="504.4" y="319" font-size="11" fill="var(--jv-dim, #52514e)" text-anchor="start">0 blocked · 5 ask · 3 allow</text>
<text x="198" y="366" font-size="13" fill="var(--jv-text, #0b0b0b)" text-anchor="end" font-weight="600">Destructive</text>
<text x="198" y="381" font-size="11" fill="var(--jv-dim, #52514e)" text-anchor="end">17 commands</text>
<g class="mark-g"><title>Destructive: 1 ask</title><path class="mark" d="M210,348H243.3V372H210V348Z" fill="var(--jv-ask, #fab219)"/>
</g>
<text x="227.6" y="365" font-size="12" fill="#1a1a19" text-anchor="middle" font-weight="700">1</text>
<g class="mark-g"><title>Destructive: 16 block</title><path class="mark" d="M245.3,348H806A4,4 0 0 1 810,352V368A4,4 0 0 1 806,372H245.3V348Z" fill="var(--jv-block, #d03b3b)"/>
</g>
<text x="527.6" y="365" font-size="12" fill="#ffffff" text-anchor="middle" font-weight="700">16</text>
<text x="822" y="365" font-size="11" fill="var(--jv-dim, #52514e)" text-anchor="start">16 blocked · 1 ask · 0 allow</text>
<text x="198" y="412" font-size="13" fill="var(--jv-text, #0b0b0b)" text-anchor="end" font-weight="600">Supply chain</text>
<text x="198" y="427" font-size="11" fill="var(--jv-dim, #52514e)" text-anchor="end">8 commands</text>
<g class="mark-g"><title>Supply chain: 1 ask</title><path class="mark" d="M210,394H243.3V418H210V394Z" fill="var(--jv-ask, #fab219)"/>
</g>
<text x="227.6" y="411" font-size="12" fill="#1a1a19" text-anchor="middle" font-weight="700">1</text>
<g class="mark-g"><title>Supply chain: 7 block</title><path class="mark" d="M245.3,394H488.4A4,4 0 0 1 492.4,398V414A4,4 0 0 1 488.4,418H245.3V394Z" fill="var(--jv-block, #d03b3b)"/>
</g>
<text x="368.8" y="411" font-size="12" fill="#ffffff" text-anchor="middle" font-weight="700">7</text>
<text x="504.4" y="411" font-size="11" fill="var(--jv-dim, #52514e)" text-anchor="start">7 blocked · 1 ask · 0 allow</text>
<text x="198" y="458" font-size="13" fill="var(--jv-text, #0b0b0b)" text-anchor="end" font-weight="600">Exfiltration</text>
<text x="198" y="473" font-size="11" fill="var(--jv-dim, #52514e)" text-anchor="end">10 commands</text>
<g class="mark-g"><title>Exfiltration: 3 allow</title><path class="mark" d="M210,440H313.9V464H210V440Z" fill="var(--jv-allow, #0ca30c)"/>
</g>
<text x="262.9" y="457" font-size="12" fill="#ffffff" text-anchor="middle" font-weight="700">3</text>
<g class="mark-g"><title>Exfiltration: 7 block</title><path class="mark" d="M315.9,440H558.9A4,4 0 0 1 562.9,444V460A4,4 0 0 1 558.9,464H315.9V440Z" fill="var(--jv-block, #d03b3b)"/>
</g>
<text x="439.4" y="457" font-size="12" fill="#ffffff" text-anchor="middle" font-weight="700">7</text>
<text x="574.9" y="457" font-size="11" fill="var(--jv-dim, #52514e)" text-anchor="start">7 blocked · 0 ask · 3 allow</text>
<text x="198" y="504" font-size="13" fill="var(--jv-text, #0b0b0b)" text-anchor="end" font-weight="600">Persistence</text>
<text x="198" y="519" font-size="11" fill="var(--jv-dim, #52514e)" text-anchor="end">5 commands</text>
<g class="mark-g"><title>Persistence: 1 allow</title><path class="mark" d="M210,486H243.3V510H210V486Z" fill="var(--jv-allow, #0ca30c)"/>
</g>
<text x="227.6" y="503" font-size="12" fill="#ffffff" text-anchor="middle" font-weight="700">1</text>
<g class="mark-g"><title>Persistence: 2 ask</title><path class="mark" d="M245.3,486H313.9V510H245.3V486Z" fill="var(--jv-ask, #fab219)"/>
</g>
<text x="280.6" y="503" font-size="12" fill="#1a1a19" text-anchor="middle" font-weight="700">2</text>
<g class="mark-g"><title>Persistence: 2 block</title><path class="mark" d="M315.9,486H382.5A4,4 0 0 1 386.5,490V506A4,4 0 0 1 382.5,510H315.9V486Z" fill="var(--jv-block, #d03b3b)"/>
</g>
<text x="351.2" y="503" font-size="12" fill="#ffffff" text-anchor="middle" font-weight="700">2</text>
<text x="398.5" y="503" font-size="11" fill="var(--jv-dim, #52514e)" text-anchor="start">2 blocked · 2 ask · 1 allow</text>
<text x="198" y="550" font-size="13" fill="var(--jv-text, #0b0b0b)" text-anchor="end" font-weight="600">Privesc / evasion</text>
<text x="198" y="565" font-size="11" fill="var(--jv-dim, #52514e)" text-anchor="end">8 commands</text>
<g class="mark-g"><title>Privesc / evasion: 6 ask</title><path class="mark" d="M210,532H419.8V556H210V532Z" fill="var(--jv-ask, #fab219)"/>
</g>
<text x="315.9" y="549" font-size="12" fill="#1a1a19" text-anchor="middle" font-weight="700">6</text>
<g class="mark-g"><title>Privesc / evasion: 2 block</title><path class="mark" d="M421.8,532H488.4A4,4 0 0 1 492.4,536V552A4,4 0 0 1 488.4,556H421.8V532Z" fill="var(--jv-block, #d03b3b)"/>
</g>
<text x="457.1" y="549" font-size="12" fill="#ffffff" text-anchor="middle" font-weight="700">2</text>
<text x="504.4" y="549" font-size="11" fill="var(--jv-dim, #52514e)" text-anchor="start">2 blocked · 6 ask · 0 allow</text>
<text x="198" y="596" font-size="13" fill="var(--jv-text, #0b0b0b)" text-anchor="end" font-weight="600">Sneaky (disguised)</text>
<text x="198" y="611" font-size="11" fill="var(--jv-dim, #52514e)" text-anchor="end">14 commands</text>
<g class="mark-g"><title>Sneaky (disguised): 3 ask</title><path class="mark" d="M210,578H313.9V602H210V578Z" fill="var(--jv-ask, #fab219)"/>
</g>
<text x="262.9" y="595" font-size="12" fill="#1a1a19" text-anchor="middle" font-weight="700">3</text>
<g class="mark-g"><title>Sneaky (disguised): 11 block</title><path class="mark" d="M315.9,578H700.1A4,4 0 0 1 704.1,582V598A4,4 0 0 1 700.1,602H315.9V578Z" fill="var(--jv-block, #d03b3b)"/>
</g>
<text x="510" y="595" font-size="12" fill="#ffffff" text-anchor="middle" font-weight="700">11</text>
<text x="716.1" y="595" font-size="11" fill="var(--jv-dim, #52514e)" text-anchor="start">11 blocked · 3 ask · 0 allow</text>
<text x="24" y="654" font-size="11" fill="var(--jv-dim, #52514e)" text-anchor="start">Traps are ordinary work that merely looks alarming, so a high allow count there means few false alarms.</text>
</svg>
