<svg xmlns="http://www.w3.org/2000/svg" viewBox="0 0 1000 620" width="1000" height="620" role="img" font-family="system-ui, -apple-system, 'Segoe UI', Roboto, sans-serif">
<title>Sandboxed Pi integration assertions: Jev API, Laya CPU and Laya GPU</title>
<rect width="1000" height="620" fill="var(--jv-bg, #fcfcfb)"/>
<text x="24" y="34" font-size="19" font-weight="650" fill="var(--jv-text, #0b0b0b)" letter-spacing="-0.01em">End-to-end behavior in a real Pi</text>
<text x="24" y="58" font-size="13" fill="var(--jv-dim, #52514e)">Same scenarios and assertions · failures retained · not a safety accuracy score</text>
<rect x="24" y="75" width="11" height="11" rx="3" fill="var(--jv-allow, #0ca30c)"/>
<text x="41" y="84" font-size="12" fill="var(--jv-dim, #52514e)">Passed</text>
<rect x="102.8" y="75" width="11" height="11" rx="3" fill="var(--jv-block, #d03b3b)"/>
<text x="119.8" y="84" font-size="12" fill="var(--jv-dim, #52514e)">Failed</text>
<rect x="181.5" y="75" width="11" height="11" rx="3" fill="var(--jv-error, #898781)"/>
<text x="198.5" y="84" font-size="12" fill="var(--jv-dim, #52514e)">Agent declined</text>
<text x="24" y="131" font-size="12" fill="var(--jv-text, #0b0b0b)" text-anchor="start">A · Jev API</text>
<path class="mark" d="M245,115H735V138H245V115Z" fill="var(--jv-allow, #0ca30c)"/>
<text x="490" y="131" font-size="12" fill="#1a1a19" text-anchor="middle">15</text>
<text x="750" y="131" font-size="12" fill="var(--jv-text, #0b0b0b)" text-anchor="start">15 / 0 / 0</text>
<text x="24" y="161" font-size="12" fill="var(--jv-text, #0b0b0b)" text-anchor="start">A · Laya CPU</text>
<path class="mark" d="M245,145H735V168H245V145Z" fill="var(--jv-allow, #0ca30c)"/>
<text x="490" y="161" font-size="12" fill="#1a1a19" text-anchor="middle">15</text>
<text x="750" y="161" font-size="12" fill="var(--jv-text, #0b0b0b)" text-anchor="start">15 / 0 / 0</text>
<text x="24" y="191" font-size="12" fill="var(--jv-text, #0b0b0b)" text-anchor="start">A · Laya GPU</text>
<path class="mark" d="M245,175H735V198H245V175Z" fill="var(--jv-allow, #0ca30c)"/>
<text x="490" y="191" font-size="12" fill="#1a1a19" text-anchor="middle">15</text>
<text x="750" y="191" font-size="12" fill="var(--jv-text, #0b0b0b)" text-anchor="start">15 / 0 / 0</text>
<text x="24" y="248" font-size="12" fill="var(--jv-text, #0b0b0b)" text-anchor="start">B · Jev API</text>
<path class="mark" d="M245,232H735V255H245V232Z" fill="var(--jv-allow, #0ca30c)"/>
<text x="490" y="248" font-size="12" fill="#1a1a19" text-anchor="middle">13</text>
<text x="750" y="248" font-size="12" fill="var(--jv-text, #0b0b0b)" text-anchor="start">13 / 0 / 0</text>
<text x="24" y="278" font-size="12" fill="var(--jv-text, #0b0b0b)" text-anchor="start">B · Laya CPU</text>
<path class="mark" d="M245,262H659.6V285H245V262Z" fill="var(--jv-allow, #0ca30c)"/>
<text x="452.3" y="278" font-size="12" fill="#1a1a19" text-anchor="middle">11</text>
<path class="mark" d="M659.6,262H735V285H659.6V262Z" fill="var(--jv-block, #d03b3b)"/>
<text x="697.3" y="278" font-size="12" fill="#fff" text-anchor="middle">2</text>
<text x="750" y="278" font-size="12" fill="var(--jv-text, #0b0b0b)" text-anchor="start">11 / 2 / 0</text>
<text x="24" y="308" font-size="12" fill="var(--jv-text, #0b0b0b)" text-anchor="start">B · Laya GPU</text>
<path class="mark" d="M245,292H697.3V315H245V292Z" fill="var(--jv-allow, #0ca30c)"/>
<text x="471.2" y="308" font-size="12" fill="#1a1a19" text-anchor="middle">12</text>
<path class="mark" d="M697.3,292H735V315H697.3V292Z" fill="var(--jv-error, #898781)"/>
<text x="716.2" y="308" font-size="12" fill="#1a1a19" text-anchor="middle">1</text>
<text x="750" y="308" font-size="12" fill="var(--jv-text, #0b0b0b)" text-anchor="start">12 / 0 / 1</text>
<text x="24" y="365" font-size="12" fill="var(--jv-text, #0b0b0b)" text-anchor="start">C · Jev API</text>
<path class="mark" d="M245,349H735V372H245V349Z" fill="var(--jv-allow, #0ca30c)"/>
<text x="490" y="365" font-size="12" fill="#1a1a19" text-anchor="middle">14</text>
<text x="750" y="365" font-size="12" fill="var(--jv-text, #0b0b0b)" text-anchor="start">14 / 0 / 0</text>
<text x="24" y="395" font-size="12" fill="var(--jv-text, #0b0b0b)" text-anchor="start">C · Laya CPU</text>
<path class="mark" d="M245,379H665V402H245V379Z" fill="var(--jv-allow, #0ca30c)"/>
<text x="455" y="395" font-size="12" fill="#1a1a19" text-anchor="middle">12</text>
<path class="mark" d="M665,379H735V402H665V379Z" fill="var(--jv-block, #d03b3b)"/>
<text x="700" y="395" font-size="12" fill="#fff" text-anchor="middle">2</text>
<text x="750" y="395" font-size="12" fill="var(--jv-text, #0b0b0b)" text-anchor="start">12 / 2 / 0</text>
<text x="24" y="425" font-size="12" fill="var(--jv-text, #0b0b0b)" text-anchor="start">C · Laya GPU</text>
<path class="mark" d="M245,409H665V432H245V409Z" fill="var(--jv-allow, #0ca30c)"/>
<text x="455" y="425" font-size="12" fill="#1a1a19" text-anchor="middle">12</text>
<path class="mark" d="M665,409H735V432H665V409Z" fill="var(--jv-block, #d03b3b)"/>
<text x="700" y="425" font-size="12" fill="#fff" text-anchor="middle">2</text>
<text x="750" y="425" font-size="12" fill="var(--jv-text, #0b0b0b)" text-anchor="start">12 / 2 / 0</text>
<text x="24" y="482" font-size="12" fill="var(--jv-text, #0b0b0b)" text-anchor="start">D · Jev API</text>
<path class="mark" d="M245,466H735V489H245V466Z" fill="var(--jv-allow, #0ca30c)"/>
<text x="490" y="482" font-size="12" fill="#1a1a19" text-anchor="middle">6</text>
<text x="750" y="482" font-size="12" fill="var(--jv-text, #0b0b0b)" text-anchor="start">6 / 0 / 0</text>
<text x="24" y="512" font-size="12" fill="var(--jv-text, #0b0b0b)" text-anchor="start">D · Laya CPU</text>
<path class="mark" d="M245,496H735V519H245V496Z" fill="var(--jv-allow, #0ca30c)"/>
<text x="490" y="512" font-size="12" fill="#1a1a19" text-anchor="middle">6</text>
<text x="750" y="512" font-size="12" fill="var(--jv-text, #0b0b0b)" text-anchor="start">6 / 0 / 0</text>
<text x="24" y="542" font-size="12" fill="var(--jv-text, #0b0b0b)" text-anchor="start">D · Laya GPU</text>
<path class="mark" d="M245,526H735V549H245V526Z" fill="var(--jv-allow, #0ca30c)"/>
<text x="490" y="542" font-size="12" fill="#1a1a19" text-anchor="middle">6</text>
<text x="750" y="542" font-size="12" fill="var(--jv-text, #0b0b0b)" text-anchor="start">6 / 0 / 0</text>
<text x="24" y="589" font-size="13" fill="var(--jv-dim, #52514e)">A: commands · B: gate behavior · C: failure modes/config · D: install/setup.</text>
<text x="24" y="610" font-size="13" fill="var(--jv-dim, #52514e)">Agent deviations can fail an assertion without exercising the intended path; see recorded observations.</text>
</svg>
